name analog
datacolumns 19
datarows 23
range 0.441 0.452
endheader
time	ground_force_vx	ground_force_vy	ground_force_vz	ground_force_px	ground_force_py	ground_force_pz	l_ground_force_vx	l_ground_force_vy	l_ground_force_vz	l_ground_force_px	l_ground_force_py	l_ground_force_pz	ground_torque_x	ground_torque_y	ground_torque_z	l_ground_torque_x	l_ground_torque_y	l_ground_torque_z
0.441	-0.0	-0.0	-0.0	24.825176239013672	57.97646331787109	-462.59808349609375	21.328540802001957	-52.41254425048828	-392.8459777832031	-0.0	-0.0	-0.0	-0.0	-0.0	-0.0	98308.3125	-24876.150390625	-4361.6650390625
0.4415	-0.0	-0.0	-0.0	27.662464141845703	60.28996658325195	-465.8586120605469	24.044553756713867	-54.71271896362305	-396.8519287109375	-0.0	-0.0	-0.0	-0.0	-0.0	-0.0	98938.3125	-24791.61328125	-3495.838623046875
0.442	-0.0	-0.0	-0.0	31.1241512298584	62.87122344970703	-469.09088134765625	27.36065673828125	-56.65177154541016	-397.8990783691406	-0.0	-0.0	-0.0	-0.0	-0.0	-0.0	99351.1640625	-24867.96875	-2372.48193359375
0.4425	-0.0	-0.0	-0.0	35.44025039672852	66.12405395507812	-475.9504089355469	31.03889274597168	-59.09076690673828	-402.0216064453125	-0.0	-0.0	-0.0	-0.0	-0.0	-0.0	99793.7265625	-24347.90234375	-1202.271240234375
0.443	-0.0	-0.0	-0.0	39.27291488647461	69.50450134277344	-480.0397644042969	33.856788635253906	-62.5521240234375	-405.9290466308594	-0.0	-0.0	-0.0	-0.0	-0.0	-0.0	100660.7421875	-24365.5859375	16.16570281982422
0.4435	-0.0	-0.0	-0.0	44.02107238769531	72.73616790771484	-484.5514831542969	37.6165885925293	-65.52406311035156	-409.4075927734375	-0.0	-0.0	-0.0	-0.0	-0.0	-0.0	101632.4921875	-23865.916015625	1376.803466796875
0.444	-0.0	-0.0	-0.0	49.08578109741211	75.98176574707031	-492.2643432617188	41.60839080810547	-69.0705795288086	-416.3355712890625	-0.0	-0.0	-0.0	-0.0	-0.0	-0.0	102429.953125	-23316.84375	2718.21923828125
0.4445	-0.0	-0.0	-0.0	54.35157775878906	79.5984878540039	-499.3377990722656	44.23519515991211	-73.04771423339844	-421.4372253417969	-0.0	-0.0	-0.0	-0.0	-0.0	-0.0	103392.3671875	-22543.556640625	4031.89794921875
0.445	-0.0	-0.0	-0.0	59.384124755859375	83.84165954589844	-506.1848754882813	47.339820861816406	-76.59735107421875	-429.467041015625	-0.0	-0.0	-0.0	-0.0	-0.0	-0.0	104556.9375	-21761.9765625	5350.66650390625
0.4455	-0.0	-0.0	-0.0	63.92911529541016	87.67167663574219	-515.3670043945312	50.28426361083984	-81.19224548339844	-437.0699462890625	-0.0	-0.0	-0.0	-0.0	-0.0	-0.0	105990.0390625	-21062.4921875	6561.02587890625
0.446	-0.0	-0.0	-0.0	67.177490234375	92.43415069580078	-524.702880859375	53.9384765625	-85.00447845458984	-447.06829833984375	-0.0	-0.0	-0.0	-0.0	-0.0	-0.0	107887.65625	-20195.42578125	7962.50244140625
0.4465	-0.0	-0.0	-0.0	69.29908752441406	97.63630676269533	-532.748046875	57.66414642333984	-89.84677124023438	-455.7875671386719	-0.0	-0.0	-0.0	-0.0	-0.0	-0.0	109799.0390625	-18974.208984375	9238.6298828125
0.447	-0.0	-0.0	-0.0	70.24532318115234	102.89471435546876	-541.784423828125	59.38417053222656	-94.43899536132812	-467.7342834472656	-0.0	-0.0	-0.0	-0.0	-0.0	-0.0	111764.8671875	-18050.39453125	10301.37109375
0.4475	-0.0	-0.0	-0.0	70.61961364746094	107.49270629882812	-553.369140625	60.020652770996094	-99.02946472167967	-479.0500183105469	-0.0	-0.0	-0.0	-0.0	-0.0	-0.0	114269.859375	-17280.146484375	10739.0703125
0.448	-0.0	-0.0	-0.0	71.08319091796875	111.75445556640624	-566.9383544921875	59.6833381652832	-103.58717346191406	-491.892333984375	-0.0	-0.0	-0.0	-0.0	-0.0	-0.0	117278.9609375	-16118.5947265625	10867.3486328125
0.4485	-0.0	-0.0	-0.0	70.44104766845703	115.63843536376952	-579.5070190429688	58.54911804199219	-108.74419403076172	-507.60888671875	-0.0	-0.0	-0.0	-0.0	-0.0	-0.0	120426.8203125	-15178.1103515625	10829.7177734375
0.449	-0.0	-0.0	-0.0	69.35189819335938	118.52667999267578	-589.3174438476562	56.223907470703125	-112.80667877197266	-521.9225463867188	-0.0	-0.0	-0.0	-0.0	-0.0	-0.0	123725.1953125	-14291.2724609375	10256.712890625
0.4495	-0.0	-0.0	-0.0	67.44314575195312	121.3418426513672	-599.9154052734375	53.633907318115234	-116.94107818603516	-536.8655395507812	-0.0	-0.0	-0.0	-0.0	-0.0	-0.0	127304.9609375	-12789.7265625	9666.841796875
0.45	-0.0	-0.0	-0.0	64.81951141357422	124.0340805053711	-611.4288330078125	50.493125915527344	-120.08338165283205	-550.8989868164062	-0.0	-0.0	-0.0	-0.0	-0.0	-0.0	130973.5546875	-11551.748046875	8785.37890625
0.4505	-0.0	-0.0	-0.0	60.270057678222656	126.35175323486328	-622.0933837890625	47.1927375793457	-122.0437469482422	-565.42333984375	-0.0	-0.0	-0.0	-0.0	-0.0	-0.0	134300.703125	-10695.6904296875	7999.8486328125
0.451	-0.0	-0.0	-0.0	56.50586700439453	128.2054443359375	-635.4425048828125	43.99951171875	-124.14517211914062	-579.3854370117188	-0.0	-0.0	-0.0	-0.0	-0.0	-0.0	137754.078125	-9414.552734375	7047.65771484375
0.4515	-0.0	-0.0	-0.0	51.70641708374024	128.9716796875	-642.7874755859375	41.1971549987793	-125.9470672607422	-591.6728515625	-0.0	-0.0	-0.0	-0.0	-0.0	-0.0	140647.71875	-8368.095703125	6119.80859375
0.452	-0.0	-0.0	-0.0	47.79914474487305	129.7200927734375	-651.8986206054688	37.45351028442383	-127.81941986083984	-601.93798828125	-0.0	-0.0	-0.0	-0.0	-0.0	-0.0	143227.359375	-7048.69775390625	5203.14453125
